<svg width="19" height="23" viewBox="0 0 19 23" fill="none" xmlns="http://www.w3.org/2000/svg">
  <path d="M0.536 0.271999C0.962667 0.293332 1.48533 0.314665 2.104 0.335999C2.744 0.357332 3.352 0.367998 3.928 0.367998C4.46133 0.367998 5.03733 0.367998 5.656 0.367998C6.296 0.346665 6.936 0.335999 7.576 0.335999C8.23733 0.314665 8.83467 0.303999 9.368 0.303999C10.9467 0.303999 12.2907 0.453332 13.4 0.751999C14.5307 1.05067 15.3947 1.54133 15.992 2.224C16.5893 2.90667 16.888 3.856 16.888 5.072C16.888 6.39467 16.4613 7.536 15.608 8.496C14.776 9.43467 13.6027 10.0107 12.088 10.224C13.3467 10.288 14.4453 10.5227 15.384 10.928C16.3227 11.312 17.048 11.8987 17.56 12.688C18.0933 13.4773 18.36 14.4907 18.36 15.728C18.36 16.9013 18.072 17.968 17.496 18.928C16.9413 19.8667 16.0453 20.6133 14.808 21.168C13.5707 21.7227 11.9387 22 9.912 22C9.18667 22 8.39733 22 7.544 22C6.69067 22 5.82667 22 4.952 22C4.07733 22.0213 3.256 22.032 2.488 22.032C1.72 22.0533 1.06933 22.0747 0.536 22.096C0.536 21.7333 0.546667 21.4133 0.568 21.136C0.589333 20.8373 0.642667 20.5813 0.728 20.368C1.304 20.3253 1.74133 20.2187 2.04 20.048C2.36 19.856 2.584 19.536 2.712 19.088C2.84 18.6187 2.904 17.9467 2.904 17.072V5.04C2.904 4.22933 2.84 3.62133 2.712 3.216C2.60533 2.81067 2.392 2.52267 2.072 2.352C1.752 2.16 1.304 2.04267 0.728 2C0.664 1.78667 0.610667 1.52 0.568 1.2C0.546667 0.858666 0.536 0.549333 0.536 0.271999ZM7 1.52V17.168C7 18.064 7.08533 18.736 7.256 19.184C7.448 19.632 7.74667 19.9307 8.152 20.08C8.55733 20.2293 9.09067 20.304 9.752 20.304C11.0747 20.304 12.0773 19.9413 12.76 19.216C13.4427 18.4693 13.784 17.4453 13.784 16.144C13.784 15.2267 13.6133 14.4693 13.272 13.872C12.9307 13.2747 12.472 12.816 11.896 12.496C11.3413 12.176 10.7013 11.952 9.976 11.824C9.272 11.6747 8.536 11.6 7.768 11.6H6.328V9.904H8.056C9.22933 9.904 10.136 9.73333 10.776 9.392C11.4373 9.05067 11.9067 8.58133 12.184 7.984C12.4613 7.38667 12.6 6.72533 12.6 6C12.6 5.01867 12.3867 4.24 11.96 3.664C11.5333 3.088 11 2.68267 10.36 2.448C9.72 2.192 9.05867 2.064 8.376 2.064C8.056 2.064 7.75733 2.08533 7.48 2.128C7.224 2.17067 6.91467 2.256 6.552 2.384L7 1.52Z" fill="#B91C1C"/>
</svg>